<svg xmlns="http://www.w3.org/2000/svg" viewBox="0 0 78.65 54.77"><defs><style>.cls-1{fill:#fff;}</style></defs><title>Arrow W</title><g id="Layer_2" data-name="Layer 2"><g id="Layer_1-2" data-name="Layer 1"><path class="cls-1" d="M78.19,29.07a.08.08,0,0,1,0,0,2.25,2.25,0,0,0,.19-.38l0,0a.22.22,0,0,0,0-.08,3.34,3.34,0,0,0,.21-1.14,3.22,3.22,0,0,0-.09-.76h0a3.37,3.37,0,0,0-1.26-1.92A2.57,2.57,0,0,0,76,24.05l-.15,0a5.48,5.48,0,0,0-.57-.05h0c-.23,0-.47,0-.7,0H11.83c0-.09-.07-.18-.11-.27a5.3,5.3,0,0,0,.67-.5l17-16.94a8.86,8.86,0,0,0,.72-.79A3.36,3.36,0,0,0,28.39.17a3.51,3.51,0,0,0-3.74,1.11Q15.83,10.13,7,18.94c-1.94,1.94-3.85,3.9-5.82,5.8a3.54,3.54,0,0,0-.1,5.18Q12.89,41.74,24.71,53.54a5.36,5.36,0,0,0,.83.68,3.38,3.38,0,0,0,5.1-1.95,3.54,3.54,0,0,0-1.14-3.6q-8.59-8.56-17.17-17.16l-.69-.71H74.28l.9,0h.25a1.93,1.93,0,0,0,.42-.05h.08a3.11,3.11,0,0,0,1.71-.91l.11-.13.19-.23C78,29.32,78.11,29.2,78.19,29.07Z"/></g></g></svg>