<svg xmlns="http://www.w3.org/2000/svg" xmlns:xlink="http://www.w3.org/1999/xlink" viewBox="0 0 95.24 74.05"><defs><style>.cls-1{fill:url(#New_Gradient_Swatch_copy_5);}</style><linearGradient id="New_Gradient_Swatch_copy_5" x1="-228.02" y1="37.02" x2="324.36" y2="37.02" gradientUnits="userSpaceOnUse"><stop offset="0" stop-color="#f57f20"/><stop offset="1" stop-color="#fba919"/></linearGradient></defs><title>Camera H</title><g id="Layer_2" data-name="Layer 2"><g id="Layer_1-2" data-name="Layer 1"><path class="cls-1" d="M8.15,9.8c0-.53,0-1.05,0-1.56a2.79,2.79,0,0,1,2.91-3c1.3,0,2.6,0,3.9,0h5.78A2.85,2.85,0,0,1,23.88,8.4V9.86c.35,0,.62,0,.9,0,2.19,0,4.37,0,6.56,0a1.2,1.2,0,0,0,1.23-.68c1.45-2.5,3-4.95,4.41-7.45A3.27,3.27,0,0,1,40.1,0q7.5.06,15,0a3.36,3.36,0,0,1,3.22,1.87c1.43,2.48,2.93,4.92,4.37,7.39a1.17,1.17,0,0,0,1.17.65c8,0,15.92,0,23.89,0a7.41,7.41,0,0,1,4.87,1.55A7,7,0,0,1,95.23,17c0,1.51,0,3,0,4.53V66.68c0,3-1.2,5.34-4,6.61a8.76,8.76,0,0,1-3.54.72c-10.51,0-21,0-31.53,0H7.43a7.1,7.1,0,0,1-6-2.77A7.22,7.22,0,0,1,0,66.68Q0,56.27,0,45.85,0,31.52,0,17.2a6.85,6.85,0,0,1,5.25-7A20.18,20.18,0,0,1,8.15,9.8ZM47.59,22.23A19.75,19.75,0,1,0,67.35,42,19.73,19.73,0,0,0,47.59,22.23Zm32.06,2c1.41,0,2.81,0,4.22,0a2.71,2.71,0,0,0,2.82-2.63A2.64,2.64,0,0,0,84,18.73c-2.92-.06-5.83-.05-8.74,0a2.69,2.69,0,0,0-2.72,2.81,2.74,2.74,0,0,0,2.87,2.67C76.84,24.23,78.25,24.22,79.65,24.21Z"/></g></g></svg>