<svg width="16" height="16" viewBox="0 0 16 16" fill="none" xmlns="http://www.w3.org/2000/svg">
<path d="M14.4 9.6H16V11.2H14.4C13.52 11.2 12.8 11.92 12.8 12.8C12.8 13.68 13.52 14.4 14.4 14.4H16V16H14.4C12.632 16 11.2 14.568 11.2 12.8C11.2 11.032 12.632 9.6 14.4 9.6ZM4.8 12V13.6C4.8 14.928 3.728 16 2.4 16H0V14.48V11.28V9.6H2.4C3.72 9.6 4.8 10.68 4.8 12ZM3.2 12.08C3.2 11.64 2.84 11.2 2.4 11.2H1.6V14.4H2.4C2.84 14.4 3.2 14.128 3.2 13.68V12.08ZM5.6 14.4V11.2C5.6 10.32 6.32 9.6 7.2 9.6H8.8C9.68 9.6 10.4 10.32 10.4 11.2V14.4C10.4 15.28 9.68 16 8.8 16H7.2C6.32 16 5.6 15.28 5.6 14.4ZM7.2 12V13.6C7.2 14.04 7.56 14.4 8 14.4C8.44 14.4 8.8 14.04 8.8 13.6V12C8.8 11.56 8.44 11.2 8 11.2C7.56 11.2 7.2 11.56 7.2 12ZM11.184 0C6.96001 0 4.088 0 0 0C0 3.864 0 -3.936 0 8H1.6V1.6H9.6V6.4H14.4V8H16V5.152L11.184 0Z" fill="black" fill-opacity="0.87"/>
</svg>
