<svg xmlns="http://www.w3.org/2000/svg" xmlns:xlink="http://www.w3.org/1999/xlink" viewBox="0 0 94.41 94.41"><defs><style>.cls-1{fill:none;}.cls-2{fill:url(#New_Gradient_Swatch_copy_5);}.cls-3{fill:url(#New_Gradient_Swatch_copy_5-2);}</style><linearGradient id="New_Gradient_Swatch_copy_5" y1="77.67" x2="94.41" y2="77.67" gradientUnits="userSpaceOnUse"><stop offset="0" stop-color="#f57f20"/><stop offset="1" stop-color="#fba919"/></linearGradient><linearGradient id="New_Gradient_Swatch_copy_5-2" x1="13.3" y1="32.41" x2="81.11" y2="32.41" xlink:href="#New_Gradient_Swatch_copy_5"/></defs><title>Download H</title><g id="Layer_2" data-name="Layer 2"><g id="Layer_1-2" data-name="Layer 1"><rect class="cls-1" width="94.41" height="94.41"/><path class="cls-2" d="M0,94.39v-5.3q0-11.66,0-23.3a4.5,4.5,0,0,1,2.69-4.4A4.22,4.22,0,0,1,7.37,62a4.58,4.58,0,0,1,1.68,3.88c0,6,0,12,0,18v1.4h76.2c0-.33.06-.67.06-1,0-6.18,0-12.36,0-18.55A4.45,4.45,0,0,1,90.15,61a4.55,4.55,0,0,1,4.23,4.73c0,4.44,0,8.88,0,13.32,0,4.63,0,9.27,0,13.91,0,1.16-.35,1.45-1.47,1.45q-23.07-.06-46.13,0H0Z"/><path class="cls-3" d="M42.71,49.27v-4.8q0-19.09,0-38.17c0-.6,0-1.19,0-1.79a4.49,4.49,0,1,1,9,0c.05,3.92,0,7.84,0,11.77q0,15.93,0,31.87a10.84,10.84,0,0,0,.18,1.22c2.15-2.23,4-4.25,6-6.21Q65.47,35.57,73.09,28a4.58,4.58,0,0,1,6.59-.29c1.94,1.92,1.91,4.58-.14,6.64Q66.1,47.79,52.63,61.23l-2,2a4.49,4.49,0,0,1-6.84,0q-9-9-18-18c-3.67-3.67-7.35-7.33-11-11a4.37,4.37,0,0,1-1-5.23,4.3,4.3,0,0,1,4.58-2.49,6,6,0,0,1,2.88,1.45C28,34.61,34.72,41.36,41.45,48.08,41.77,48.41,42.12,48.71,42.71,49.27Z"/></g></g></svg>