<svg xmlns="http://www.w3.org/2000/svg" viewBox="0 0 94.41 94.41"><defs><style>.cls-1{fill:none;}.cls-2{fill:#b7b9bb;}</style></defs><title>EditLG</title><g id="Layer_2" data-name="Layer 2"><g id="Layer_1-2" data-name="Layer 1"><rect class="cls-1" width="94.41" height="94.41"/><path class="cls-2" d="M94.41,17A10.88,10.88,0,0,1,91,22.1c-2.47,2.4-4.88,4.86-7.31,7.3a5.09,5.09,0,0,0-.55.78L63.82,10.87c0,.05,0,0,0-.06C66.63,8,69.3,5.12,72.24,2.51c3.62-3.23,8.3-3,11.79.35,2.83,2.74,5.57,5.56,8.36,8.34a8.46,8.46,0,0,1,2,3.76Z"/><path class="cls-2" d="M58.7,16.15l19,19L29.24,83.56l-19-19Z"/><path class="cls-2" d="M4.79,70l19,19c-.12,0-.33.12-.56.18q-10,2.44-20.12,4.89c-2.22.53-3.5-.72-3-2.94Q2.44,80.58,4.79,70Z"/></g></g></svg>