<svg width="20" height="21" viewBox="0 0 20 21" fill="none" xmlns="http://www.w3.org/2000/svg">
<path d="M13 13.03V13.06C13 13.61 12.55 14.01 12 14.01H11V18.01H12C12.55 18.01 13 18.48 13 19.04V19.07C13 19.62 12.55 20.02 12 20.02C10.43 20.02 9.29 20.02 8 20.02C7.45 20.02 7.01 19.6 7 19.06C7.01 18.51 7.45 18.02 8 18.02H9V14.02H8C7.45 14.02 7.01 13.6 7 13.06C7.01 12.51 7.45 12.02 8 12.02C9.29 12.02 10.43 12.02 12 12.02C12.55 12 13 12.47 13 13.03ZM7 19.05V19.04V19.03V19.05ZM7 13.05V13.04V13.03V13.05ZM5 12H4C1.66 12 -0.210003 14.01 0.0199966 16.39C0.219997 18.47 2.08 20 4.17 20H5C5.55 20 6 19.66 6 19.1C6 18.38 6 17.82 6 17.1C6 16.55 5.55 16.1 5 16.1C4.45 16.1 4 16.55 4 17.1V18.1C2.79 18.1 1.82 16.96 2.03 15.71C2.19 14.73 3.11 13.99 4.11 13.99H5C5.55 13.99 6 13.59 6 13.04V13.01C6 12.47 5.55 12 5 12ZM19 12C17.08 12 16.92 12 15 12C14.45 12 14 12.55 14 13.1V19.1C14 19.65 14.45 20.1 15 20.1C15.55 20.1 16 19.65 16 19.1V18C20.15 18 17.2 18 19 18C19.55 18 20 17.6 20 17.05V17.02C20 16.47 19.55 15.99 19 15.99C17.21 15.99 20.14 15.99 16 15.99V13.99C20.15 13.99 17.2 13.99 19 13.99C19.55 13.99 20 13.59 20 13.04V13.01C20 12.47 19.55 12 19 12ZM19.72 6.15L14.27 0.360001C14.08 0.160001 13.82 0 13.55 0H2C0.9 0 0 0.999998 0 2.1V9.10001C0 9.65001 0.45 10.1 1 10.1C1.55 10.1 2 9.65001 2 9.10001V3.1C2 2.55 2.45 2 3 2H12V6.1C12 7.2 12.9 8 14 8H18V9.10001C18 9.65001 18.45 10.1 19 10.1C19.55 10.1 20 9.65001 20 9.10001V6.83C20 6.58 19.9 6.33 19.72 6.15Z" fill="black"/>
</svg>
