<svg xmlns="http://www.w3.org/2000/svg" viewBox="0 0 94.41 94.41"><defs><style>.cls-1{fill:none;}.cls-2{fill:#b7b9bb;}</style></defs><title>MessageLG</title><g id="Layer_2" data-name="Layer 2"><g id="Layer_1-2" data-name="Layer 1"><rect class="cls-1" width="94.41" height="94.41"/><path class="cls-2" d="M79.38,7.17H15a15,15,0,0,0-15,15V57A15,15,0,0,0,15,72H24V91.39a2,2,0,0,0,0,.25,2.81,2.81,0,0,0,4.46,2.21c2.33-1.66,4.66-3.34,7-5L52.16,76.77c2.08-1.5,4.17-3,6.25-4.51a3.88,3.88,0,0,0,.31-.26H79.38a15,15,0,0,0,15-15V22.2A15,15,0,0,0,79.38,7.17ZM23.32,46.84a7.26,7.26,0,1,1,7.25-7.25A7.26,7.26,0,0,1,23.32,46.84Zm23.88,0a7.26,7.26,0,1,1,7.26-7.25A7.26,7.26,0,0,1,47.2,46.84Zm23.89,0a7.26,7.26,0,1,1,7.25-7.25A7.25,7.25,0,0,1,71.09,46.84Z"/></g></g></svg>