<svg width="21" height="21" viewBox="0 0 21 21" fill="none" xmlns="http://www.w3.org/2000/svg">
<path d="M3.71999 12H1.88998C1.33998 12 0.999985 12.55 0.999985 13.1V19.1C0.999985 19.65 1.38998 20 1.94998 20H1.97998C2.52998 20 3.00998 19.66 3.00998 19.1V18H3.89998C5.60998 18 6.98998 16.57 6.89998 14.84C6.79998 13.22 5.34999 12 3.71999 12ZM3.88998 16.1H2.88998V14.1H3.88998C4.43998 14.1 4.88998 14.55 4.88998 15.1C4.88998 15.66 4.44998 16.1 3.88998 16.1ZM21 13.03V13.06C21 13.61 20.45 14.01 19.89 14.01H19C18 14.01 17.13 14.74 16.97 15.73C16.77 16.98 18 18.12 19 18.12V17.12C19 16.57 19.41 16.03 19.96 16.02C20.51 16.03 21 16.57 21 17.12C21 17.84 21 18.4 21 19.12C21 19.67 20.45 20.02 19.89 20.02H19.06C16.97 20.02 15.11 18.49 14.91 16.41C14.68 14.02 16.55 12.02 18.89 12.02H19.89C20.45 12 21 12.47 21 13.03ZM19.97 16H19.96H19.95H19.97ZM14 13.1V19.1C14 19.65 13.45 20 12.89 20H12.2C12.01 20 11.89 19.95 11.81 19.78L9.99998 16.1V19.1C9.99998 19.65 9.52999 20 8.96999 20H8.93999C8.38999 20 7.98999 19.66 7.98999 19.1V13.1C7.98999 12.55 8.32999 12 8.87999 12H9.56999C9.75999 12 9.98999 12.16 10.07 12.33L11.99 16.11V13.11C11.99 12.56 12.4 12.02 12.95 12.01C13.51 12.01 14 12.56 14 13.1ZM12.97 12H12.96H12.95H12.97ZM21 6.84V9.11C21 9.66 20.53 10.01 19.97 10.01H19.94C19.39 10.01 18.99 9.67 18.99 9.11V8H14.88C13.78 8 12.99 7.21 12.99 6.1V2H3.87999C3.32999 2 2.98999 2.55 2.98999 3.1V9.10001C2.98999 9.65001 2.51999 10 1.95999 10H1.92998C1.37998 10 0.97998 9.66001 0.97998 9.10001V2.1C0.97998 0.999998 1.76998 0 2.86998 0H14.42C14.69 0 14.98 0.160001 15.17 0.360001L20.65 6.15C20.85 6.33 21 6.58 21 6.84Z" fill="black"/>
</svg>
