<svg xmlns="http://www.w3.org/2000/svg" viewBox="0 0 126.12 126.12"><defs><style>.cls-1{fill:#fff;}.cls-2{fill:none;}</style></defs><title>Profile Info Professional Status</title><g id="Layer_2" data-name="Layer 2"><g id="Layer_1-2" data-name="Layer 1"><path class="cls-1" d="M48.92,78c-5.66-.28-11.24-.34-16.77-.86Q19,75.88,5.87,74.12C0,73.34,0,73.16,0,67.37q0-18.15,0-36.3c0-4.47,2.11-6.58,6.57-6.58h33.8c0-1.08.12-2,.13-2.94,0-3.14,0-6.27,0-9.41s1.8-5,5-5q17.39,0,34.76,0c3.56,0,5.16,1.56,5.23,5.12.06,3.39.1,6.79,0,10.18,0,1.59.43,2.06,2,2.05,10.56-.08,21.13,0,31.69-.05,4.72,0,6.78,2.06,6.78,6.77,0,13.13,0,26.25,0,39.38,0,1.84-.67,2.51-2.3,2.74-7,1-13.87,2.26-20.85,3-7.89.8-15.83,1.1-23.74,1.6-.64,0-1.28,0-2.07,0a14.72,14.72,0,0,0-6.53-10.1,14.41,14.41,0,0,0-9-2.16C55.63,66.06,50.78,70.66,48.92,78Zm.77-53.64H76.36V16.22H49.69Z"/><path class="cls-1" d="M123.75,81.58V96.1c0,5.57,0,11.14,0,16.71,0,4.48-1.58,6.11-6.12,6.13-11.65,0-23.3,0-34.95,0H18.75c-3.71,0-7.42,0-11.13,0s-5.3-1.79-5.3-5.34c0-10.61,0-21.23,0-32,15.42,2.79,30.89,3.65,46.47,4.4a14.41,14.41,0,0,0,3.63,9.39c4.08,4.41,9.13,5.92,14.81,4.11a13.18,13.18,0,0,0,9.67-11.68c.18-1.55.76-2,2.25-2,9.76-.59,19.53-1.17,29.27-2C113.49,83.24,118.52,82.31,123.75,81.58Z"/><path class="cls-1" d="M56.85,82.94c0-1.09,0-2.18,0-3.26a6.19,6.19,0,0,1,12.37-.06c0,2.17,0,4.34,0,6.51a6.18,6.18,0,0,1-12.36.06c0-1.08,0-2.17,0-3.25Z"/><rect class="cls-2" width="126.12" height="126.12"/></g></g></svg>