<svg xmlns="http://www.w3.org/2000/svg" viewBox="0 0 126.12 126.12"><defs><style>.cls-1{fill:#fff;}.cls-2{fill:none;}</style></defs><title>Profile Info Experience</title><g id="Layer_2" data-name="Layer 2"><g id="Layer_1-2" data-name="Layer 1"><path class="cls-1" d="M63,0C27.73.33-.43,28.72,0,63.79A63.06,63.06,0,1,0,63,0ZM94.51,51.73l-30,20.72a3.51,3.51,0,0,1-2.2.7h0l-.34,0a3.74,3.74,0,0,1-.45-.12l-.34-.13-.21-.11a3.4,3.4,0,0,1-1.27-1.08,3.11,3.11,0,0,1-.22-.4,1.94,1.94,0,0,1-.17-.42,3.89,3.89,0,0,1-.18-1.21q0-9.82,0-19.66V25a2.81,2.81,0,0,1,0-.29A3.66,3.66,0,0,1,59.62,23a3.2,3.2,0,0,1,.66-.76,3.54,3.54,0,0,1,.64-.42l.24-.1a2.91,2.91,0,0,1,.5-.16,3.32,3.32,0,0,1,.77-.1,3.18,3.18,0,0,1,1,.14l.24.08a2.61,2.61,0,0,1,1.19.92,4.77,4.77,0,0,1,.85,2.5c0,2,0,4,0,5.94,0,1.54,0,3.08,0,4.62V63.4l1-.67.46-.31L69.35,61,80,53.58l10.66-7.36a4.88,4.88,0,0,1,1-.56l.35-.11a3.34,3.34,0,0,1,1-.12,3.16,3.16,0,0,1,2.55,1.47,3.89,3.89,0,0,1,.34.63,3.15,3.15,0,0,1,.2.64A3.47,3.47,0,0,1,94.51,51.73Z"/><rect class="cls-2" width="126.12" height="126.12"/></g></g></svg>