<svg xmlns="http://www.w3.org/2000/svg" viewBox="0 0 126.12 126.12"><defs><style>.cls-1{fill:#fff;}.cls-2{fill:none;}</style></defs><title>Profile Info Interest Hobbies</title><g id="Layer_2" data-name="Layer 2"><g id="Layer_1-2" data-name="Layer 1"><path class="cls-1" d="M40.64,26.23c3.38,0,6.76,0,10.15,0a8.37,8.37,0,0,1,2.37.37c2,.56,2.48,2.07,1.36,3.77-.58.86-1.22,1.68-1.84,2.51A11.46,11.46,0,0,0,53,47.19a12.22,12.22,0,0,0,6.82,4,13.32,13.32,0,0,0,13.08-3.75,10,10,0,0,0,2.71-5.72,11.21,11.21,0,0,0-2.21-8.64c-.48-.67-1-1.32-1.42-2a7.42,7.42,0,0,1-.87-1.82,1.82,1.82,0,0,1,1.15-2.39,7.24,7.24,0,0,1,2.49-.55c6.41-.06,12.82-.06,19.23-.07.53,0,1.07,0,1.61,0A4.65,4.65,0,0,1,100.2,31c0,.85,0,1.69,0,2.53,0,5.6,0,11.21.06,16.81a9.76,9.76,0,0,0,.63,3.89,4.69,4.69,0,0,0,6.34,2.48,18.17,18.17,0,0,0,2.56-1.55,13.23,13.23,0,0,1,5.06-2.34,9.33,9.33,0,0,1,10.72,6.79,11.72,11.72,0,0,1-.78,8.86c-2.85,5.23-9.09,6.61-14.15,3.18-.86-.58-1.68-1.23-2.55-1.78a4.69,4.69,0,0,0-6.53,1,5.19,5.19,0,0,0-1.18,3.37q-.08,9.16-.14,18.32c0,1,0,1.93-.09,2.89A4.5,4.5,0,0,1,96,99.78a14.72,14.72,0,0,1-1.76.1c-6.25,0-12.5,0-18.75,0a10.18,10.18,0,0,1-2.74-.43A2.14,2.14,0,0,1,71.4,96a27.21,27.21,0,0,1,1.83-2.57,11.42,11.42,0,0,0-.13-14.46,11.67,11.67,0,0,0-6.85-4,13.34,13.34,0,0,0-8.81.69,11.85,11.85,0,0,0-6.93,8.17,10.76,10.76,0,0,0,1.68,8.45c.72,1.13,1.53,2.2,2.25,3.33A4.15,4.15,0,0,1,55,97a1.92,1.92,0,0,1-1.39,2.35,9.78,9.78,0,0,1-2.87.54c-6.59,0-13.18,0-19.77,0a4.72,4.72,0,0,1-5-3.69,5.37,5.37,0,0,1-.17-1.32q0-7.66,0-15.32c0-1.61,0-3.22-.11-4.82a9.21,9.21,0,0,0-.56-2.66,4.64,4.64,0,0,0-6.84-2.42A25.27,25.27,0,0,0,16,71.21a12,12,0,0,1-5.49,2.26,9,9,0,0,1-6.58-1.89A9.39,9.39,0,0,1,.05,64.25a11,11,0,0,1,1.41-7A9.3,9.3,0,0,1,10,52.63a10.56,10.56,0,0,1,5.72,2.06,21.52,21.52,0,0,0,3.08,1.94,4.44,4.44,0,0,0,6.47-3.09,16.41,16.41,0,0,0,.47-3.76c.06-5.87,0-11.74.08-17.62a10.2,10.2,0,0,1,.36-2.8,4.31,4.31,0,0,1,4-3.08c.53,0,1.07-.05,1.61-.05Z"/><rect class="cls-2" width="126.12" height="126.12"/></g></g></svg>