<svg xmlns="http://www.w3.org/2000/svg" viewBox="0 0 126.12 126.12"><defs><style>.cls-1{fill:#fff;}.cls-2{fill:none;}</style></defs><title>Profile Info Living In</title><g id="Layer_2" data-name="Layer 2"><g id="Layer_1-2" data-name="Layer 1"><path class="cls-1" d="M125.5,68c-.1-.33-.51-.56-.78-.83q-12.39-12.4-24.8-24.78a4.39,4.39,0,0,1-1.47-3.44c.08-6.89,0-13.78,0-20.67,0-2.6-.79-3.38-3.33-3.39q-6.37,0-12.74,0c-2.18,0-3,.81-3,3,0,1.16,0,2.31,0,3.94l-13.93-14c-1.88-1.89-2.82-1.92-4.68-.05L1.38,67.18c-.93.94-1.76,1.89-1.19,3.33S2.06,72,3.36,72l14.06,0c.57,0,1.15,0,1.8.08v43.69c0,3.09.79,3.88,3.92,3.88h80c3.23,0,4-.74,4-4V72.19h2c4.85,0,9.71.07,14.55,0A3,3,0,0,0,126,70.79C126.33,70,125.79,68.9,125.5,68Z"/><rect class="cls-2" width="126.12" height="126.12"/></g></g></svg>