<svg xmlns="http://www.w3.org/2000/svg" viewBox="0 0 126.12 126.12"><defs><style>.cls-1{fill:#fff;}.cls-2{fill:none;}</style></defs><title>Profile Info DOB</title><g id="Layer_2" data-name="Layer 2"><g id="Layer_1-2" data-name="Layer 1"><path class="cls-1" d="M63.16,71.86c12.72,0,25.44,0,38.16,0,8.62,0,16,6.35,16.45,14.27a5.94,5.94,0,0,1-1.61,3.77,16.79,16.79,0,0,1-4,2.78C103.57,98,95.7,97.26,88.45,90.18c-2.26-2.2-3.81-2.42-6.41-.4A30.9,30.9,0,0,1,44,89.57c-2.22-1.75-3.68-1.7-5.71.22-10.08,9.5-18.94,7.58-28.89-.52a4,4,0,0,1-.94-2.92c.35-7.81,7.77-14.43,16.29-14.47C37.53,71.81,50.35,71.86,63.16,71.86Z"/><path class="cls-1" d="M0,115.37H126.12c-.1,6.35-4.73,10.72-11.4,10.73-13.33,0-26.65,0-40,0q-31.42,0-62.86,0C5,126.1.92,122.47,0,115.37Z"/><path class="cls-1" d="M41.24,94.73c14.56,9.37,29,9.4,43.83,0,10.22,9.13,21.19,9.22,32.7,1.1v13.87H8.58V96c5.13,3.21,10.42,6,16.62,5.77S36.64,98.65,41.24,94.73Z"/><path class="cls-1" d="M65.89,36.09c0-2.43,0-4.81,0-7.18,0-2-1.05-3.36-2.83-3.06-1,.18-2.35,1.84-2.55,3a43.37,43.37,0,0,0-.12,7.22A12.9,12.9,0,0,1,50.31,18.94C52,14.17,58.06,5.28,63.26,0c5.48,6.7,11.33,13.11,13.4,21.74C78.12,27.8,73,34.53,65.89,36.09Z"/><path class="cls-1" d="M74,66.3H52.37c0-6.72-.15-13.32.08-19.9.09-2.6,2.08-4.11,4.76-4.18,4-.1,7.94-.12,11.91,0a4.66,4.66,0,0,1,4.81,4.82C74.05,53.37,74,59.69,74,66.3Z"/><rect class="cls-2" width="126.12" height="126.12"/></g></g></svg>