<svg width="20" height="21" viewBox="0 0 20 21" fill="none" xmlns="http://www.w3.org/2000/svg">
<path d="M2 14.5C2 14.78 2.22 15 2.5 15H4H4.02C5.11 15 6 15.89 6 16.98V18.02C6 19.11 5.11 20 4.02 20H4H1C0.45 20 0 19.55 0 19C0 18.45 0.45 18 1 18H3.5C3.78 18 4 17.78 4 17.5C4 17.22 3.78 17 3.5 17H2C0.9 17 0 16.1 0 15V14C0 12.9 0.9 12 2 12C6.14 12 3.21 12 5 12C5.55 12 6 12.45 6 13C6 13.55 5.55 14 5 14C4.13 14 3.37 14 2.5 14C2.22 14 2 14.22 2 14.5ZM18.11 14H19C19.55 14 20 13.55 20 13C20 12.45 19.55 12 19 12H18C15.66 12 13.79 14.01 14.02 16.39C14.22 18.47 16.08 20 18.17 20H19C19.55 20 20 19.55 20 19V18V17C20 16.45 19.55 16 19 16C18.45 16 18 16.45 18 17V18C16.79 18 15.82 16.92 16.03 15.66C16.19 14.68 17.11 14 18.11 14ZM11.88 12C11.38 12 10.96 12.37 10.9 12.87L10.25 18H9.75L9.11 12.87C9.05 12.37 8.63 12 8.13 12C7.53 12 7.07 12.52 7.15 13.12L7.9 19.13C7.96 19.63 8.39 20.01 8.89 20.01H11.12C11.62 20.01 12.05 19.63 12.11 19.13L12.86 13.12C12.93 12.52 12.47 12 11.88 12ZM19.72 6.04L14.27 0.309998C14.08 0.109998 13.82 0 13.55 0H2C0.9 0 0 0.9 0 2V9C0 9.55 0.45 10 1 10C1.55 10 2 9.55 2 9V3C2 2.45 2.45 2 3 2H12V6C12 7.1 12.9 8 14 8H18V9C18 9.55 18.45 10 19 10C19.55 10 20 9.55 20 9V6.73C20 6.48 19.9 6.23 19.72 6.04Z" fill="black"/>
</svg>
