<svg width="20" height="21" viewBox="0 0 20 21" fill="none" xmlns="http://www.w3.org/2000/svg">
<path d="M6 13.03V13.06C6 13.61 5.55 14.01 5 14.01H4V19.11C4 19.66 3.55 20.11 3 20.11C2.45 20.11 2 19.66 2 19.11V14H1C0.45 14 0.01 13.58 0 13.04C0.01 12.49 0.45 12 1 12C2.92 12 3.08 12 5 12C5.55 12 6 12.47 6 13.03ZM0 13.05V13.04V13.03V13.05ZM14 13.05V13.04V13.03V13.05ZM19 12C17.08 12 16.92 12 15 12C14.45 12 14.01 12.49 14 13.04C14.01 13.59 14.45 14 15 14H16V19.1C16 19.65 16.45 20.1 17 20.1C17.55 20.1 18 19.65 18 19.1V14H19C19.55 14 20 13.6 20 13.05V13.02C20 12.47 19.55 12 19 12ZM11.53 12.1C11.19 12.1 10.88 12.29 10.73 12.59L9.98 14.1L9.23 12.59C9.08 12.29 8.76999 12.1 8.42999 12.1C7.76999 12.1 7.33 12.8 7.63 13.39L8.98 16.1L7.63 18.81C7.33 19.4 7.76999 20.1 8.42999 20.1C8.76999 20.1 9.08 19.91 9.23 19.61L9.98 18.1L10.73 19.61C10.88 19.91 11.19 20.1 11.53 20.1C12.19 20.1 12.63 19.4 12.33 18.81L10.98 16.1L12.33 13.39C12.63 12.8 12.2 12.1 11.53 12.1ZM19.72 6.14999L14.27 0.360001C14.08 0.160001 13.82 0 13.55 0H2C0.9 0 0 1.00001 0 2.10001V9.10001C0 9.65001 0.45 10.1 1 10.1C1.55 10.1 2 9.65001 2 9.10001V3.10001C2 2.55001 2.45 2 3 2H12V6.10001C12 7.20001 12.9 8 14 8H18V9.10001C18 9.65001 18.45 10.1 19 10.1C19.55 10.1 20 9.65001 20 9.10001V6.83C20 6.58 19.9 6.32999 19.72 6.14999Z" fill="black"/>
</svg>
