<svg xmlns="http://www.w3.org/2000/svg" viewBox="0 0 94.41 94.41"><defs><style>.cls-1{fill:#fff;}.cls-2{fill:none;}</style></defs><title>Upload W</title><g id="Layer_2" data-name="Layer 2"><g id="Layer_1-2" data-name="Layer 1"><path class="cls-1" d="M0,94.39v-5.3q0-11.66,0-23.3a4.5,4.5,0,0,1,2.69-4.4A4.22,4.22,0,0,1,7.37,62a4.58,4.58,0,0,1,1.68,3.88c0,6,0,12,0,18v1.4h76.2c0-.33.06-.67.06-1,0-6.18,0-12.36,0-18.55A4.45,4.45,0,0,1,90.15,61a4.55,4.55,0,0,1,4.23,4.73c0,4.44,0,8.88,0,13.32,0,4.63,0,9.27,0,13.91,0,1.16-.35,1.45-1.47,1.45q-23.07-.06-46.13,0H0Z"/><path class="cls-1" d="M51.69,15.55v4.8q0,19.08,0,38.17c0,.59,0,1.19,0,1.78a4.49,4.49,0,1,1-9,0c0-3.92,0-7.85,0-11.77q0-15.93,0-31.87c0-.26-.08-.52-.18-1.22-2.15,2.23-4.05,4.25-6,6.21q-7.59,7.64-15.21,15.23a4.58,4.58,0,0,1-6.59.29,4.43,4.43,0,0,1,.14-6.64Q28.31,17,41.78,3.59c.67-.68,1.34-1.36,2-2a4.48,4.48,0,0,1,6.83,0q9,9,18,18c3.67,3.68,7.36,7.34,11,11a4.35,4.35,0,0,1,1,5.22,4.26,4.26,0,0,1-4.57,2.49,5.73,5.73,0,0,1-2.88-1.45C66.4,30.2,59.69,23.45,53,16.73,52.63,16.41,52.29,16.1,51.69,15.55Z"/><rect class="cls-2" width="94.41" height="94.41"/></g></g></svg>